Coordinates
version=1
nRows=12
nColumns=33
inDegrees=yes

Units are S.I. units (second, meters, Newtons, ...)
Angles are in degrees.

endheader
time	ground_thorax_rot_x	ground_thorax_rot_y	ground_thorax_rot_z	ground_thorax_tx	ground_thorax_ty	ground_thorax_tz	clav_prot_r	clav_elev_r	scapula_abduction_r	scapula_elevation_r	scapula_upward_rot_r	scapula_winging_r	shoulder_elv_r	plane_of_elev_r	axial_rot_r	elbow_flexion_r	pro_sup_r	wrist_flex_r	wrist_dev_r	clav_prot_l	clav_elev_l	scapula_abduction_l	scapula_elevation_l	scapula_upward_rot_l	scapula_winging_l	shoulder_elv_l	plane_of_elev_l	axial_rot_l	elbow_flexion_l	pro_sup_l	wrist_flex_l	wrist_dev_l
      7.66000000	     40.14823147	      3.51118879	     12.16525620	   -196.40803979	    832.93673088	     -9.66754626	      3.91423009	     43.44786345	     45.00000000	     43.48952119	      6.40504167	   2405.58099100	  -2098.24401859	     16.17653703	   -179.99999979	      6.07086913	    294.78836193	     18.33559324	      9.14034757	     10.66685737	    -45.00000000	    -33.28303896	     45.00000000	    -45.00000000	   -983.74783431	  -2259.04047126	    146.45097569	    134.99368150	   -350.39218580	     32.50648829	      9.04048514	    -21.64494000
      7.67000000	     40.28556624	      3.65976532	     12.05481855	   -197.20905456	    833.74091087	     -9.66594234	      3.72073930	     43.60418605	     44.97887623	     43.60380641	      5.93863873	   2405.39031133	  -2098.45098326	     16.50125627	   -179.99999979	      6.06682091	    294.72717952	     19.03344902	      8.82899023	     10.76513612	    -45.00000000	    -33.16973675	     45.00000000	    -45.00000000	   -983.85855304	  -2259.06140907	    146.59147481	    135.00498963	   -350.39865298	     32.93845220	      9.27881062	    -21.83337792
      7.68000000	     40.27979194	      3.66109755	     11.87806339	   -197.78969538	    834.45108690	     -9.65175356	      3.87843646	     43.89332662	     44.78187153	     43.62746444	      6.16797616	   2405.60260615	  -2098.58995079	     16.34453011	   -179.99999979	      6.07255404	    294.68375998	     18.60446327	      8.93442860	     10.83213377	    -45.00000000	    -33.28109895	     45.00000000	    -45.00000000	   -983.60161177	  -2258.94232152	    146.56434845	    134.58846022	   -350.13773459	     33.25178847	      8.96253159	    -21.79710306
      7.69000000	     40.37565897	      3.92240683	     12.08533979	   -198.17147904	    835.06806353	     -9.62581936	      3.62998066	     43.69448031	     44.80903173	     43.61767256	      5.74532629	   2405.71610643	  -2098.48591161	     16.43035596	   -179.99999979	      5.97280627	    294.53767148	     18.91854499	      8.78109777	     10.99770741	    -45.00000000	    -33.29482500	     45.00000000	    -45.00000000	   -983.50029452	  -2258.94665533	    146.82377383	    134.31098085	   -350.04164766	     33.61596464	      8.95158974	    -21.83328289
      7.70000000	     40.48121506	      4.01848586	     11.88663309	   -198.37300634	    835.59695917	     -9.58454797	      3.85117841	     43.91745273	     44.56352180	     43.68296233	      5.96243639	   2405.70592267	  -2098.58547404	     16.57519734	   -179.99999979	      6.08006196	    294.38007105	     18.89197475	      8.77308081	     10.94232022	    -45.00000000	    -33.35940034	     45.00000000	    -45.00000000	   -983.52035316	  -2258.99601412	    146.78307514	    134.05988530	   -350.07210842	     33.89573207	      8.75550524	    -21.76036754
      7.71000000	     40.45912360	      4.26035880	     11.97512095	   -198.41456016	    836.04970538	     -9.52562006	      3.56021540	     43.66383072	     44.20967099	     43.76181712	      5.87599712	   2406.06899603	  -2098.69089689	     16.41969862	   -179.99999979	      6.01211386	    294.22309179	     19.03446065	      8.71284606	     11.10319482	    -45.00000000	    -33.45137643	     45.00000000	    -45.00000000	   -983.41736332	  -2258.92552895	    146.92270700	    133.90050506	   -349.98956523	     34.16188627	      8.73266308	    -21.77093950
      7.72000000	     40.56613444	      4.23960037	     12.01464228	   -198.31363032	    836.42793434	     -9.45072685	      3.73709182	     43.75178086	     44.85361097	     43.79824241	      5.46405564	   2405.79441131	  -2098.62468952	     16.39417476	   -179.99999979	      5.96164098	    293.99503929	     18.99646922	      8.68742746	     11.17506738	    -45.00000000	    -33.27084827	     45.00000000	    -45.00000000	   -983.28076205	  -2258.93863834	    146.91652743	    133.67145903	   -349.85253545	     34.47602289	      8.54070794	    -21.73487660
      7.73000000	     40.62658115	      4.26369338	     11.90287280	   -198.09128772	    836.74474792	     -9.36280619	      3.74914706	     43.70633646	     44.93214857	     43.88611882	      5.64618919	   2405.65700586	  -2098.66640900	     16.39005143	   -179.99999979	      5.98506114	    293.81448264	     19.05809650	      8.67237035	     11.15274632	    -45.00000000	    -33.23177554	     45.00000000	    -45.00000000	   -983.28501651	  -2258.88140862	    146.85051306	    133.57896751	   -349.76104238	     34.81380391	      8.40213605	    -21.70113473
      7.74000000	     40.59863252	      4.55255480	     12.04355894	   -197.76874055	    837.01340206	     -9.26639533	      3.42649404	     43.83743299	     44.39362127	     43.86458828	      5.61305860	   2406.42417481	  -2098.55538444	     16.11776054	   -179.99999979	      5.93337534	    293.77275022	     19.03048519	      8.62495908	     11.30747650	    -45.00000000	    -33.53710124	     45.00000000	    -45.00000000	   -983.20109126	  -2258.94565618	    146.97831539	    133.54113991	   -349.72473243	     35.09696978	      8.23026308	    -21.62647370
      7.75000000	     40.62695528	      4.59957460	     11.99449096	   -197.36271387	    837.25208175	     -9.16414227	      3.66436950	     43.76215715	     44.57192279	     43.89235377	      5.34276276	   2406.10728052	  -2098.75064894	     16.35063480	   -179.99999979	      5.92027082	    293.69425502	     19.15574127	      8.58236729	     11.32161291	    -45.00000000	    -33.42298262	     45.00000000	    -45.00000000	   -983.23344314	  -2258.83291286	    146.90602153	    133.30492337	   -349.65365881	     35.46462400	      8.13267675	    -21.61427136
      7.76000000	     40.68105566	      4.38398969	     11.74238821	   -196.89308783	    837.47475339	     -9.05901005	      3.96301167	     43.76987647	     45.00000000	     43.87922552	      5.67401990	   2405.52838925	  -2098.78207719	     16.64934665	   -179.99999979	      6.13007944	    293.72660843	     19.25702719	      8.62935031	     11.10761930	    -45.00000000	    -33.29189248	     45.00000000	    -45.00000000	   -983.37139548	  -2258.76045317	    146.86136502	    133.15834051	   -349.54171387	     35.97288196	      8.01095657	    -21.60947524
      7.77000000	     40.72326670	      4.72063635	     11.99806454	   -196.39887134	    837.68742357	     -8.95655678	      3.27030482	     43.65642345	     44.31438072	     44.05167376	      5.67906155	   2406.81429100	  -2098.54119424	     15.98807659	   -179.99999979	      6.00941440	    293.93519537	     19.23808614	      8.55322361	     11.43669802	    -45.00000000	    -33.70131315	     45.00000000	    -45.00000000	   -983.17312177	  -2259.02066989	    146.89972461	    133.34685468	   -349.52941196	     36.29245212	      7.84897194	    -21.51628785
